<mxfile host="Electron" modified="2023-05-29T13:09:46.398Z" agent="Mozilla/5.0 (Macintosh; Intel Mac OS X 10_15_7) AppleWebKit/537.36 (KHTML, like Gecko) draw.io/21.2.8 Chrome/112.0.5615.165 Electron/24.2.0 Safari/537.36" etag="5pCXs0soksALRcNxGqOW" version="21.2.8" type="device">
  <diagram name="페이지-1" id="W_tMCLpEutyBAsn6ivb_">
    <mxGraphModel dx="954" dy="674" grid="1" gridSize="10" guides="1" tooltips="1" connect="1" arrows="1" fold="1" page="1" pageScale="1" pageWidth="4681" pageHeight="3300" math="0" shadow="0">
      <root>
        <mxCell id="0" />
        <mxCell id="1" parent="0" />
        <mxCell id="d_AbX2u6F2E5icHir9cb-50" style="edgeStyle=orthogonalEdgeStyle;rounded=0;orthogonalLoop=1;jettySize=auto;html=1;exitX=0.5;exitY=1;exitDx=0;exitDy=0;entryX=0.5;entryY=0;entryDx=0;entryDy=0;" edge="1" parent="1" source="d_AbX2u6F2E5icHir9cb-45" target="d_AbX2u6F2E5icHir9cb-49">
          <mxGeometry relative="1" as="geometry" />
        </mxCell>
        <mxCell id="d_AbX2u6F2E5icHir9cb-45" value="카메라 1" style="rounded=0;whiteSpace=wrap;html=1;" vertex="1" parent="1">
          <mxGeometry x="540" y="250" width="120" height="60" as="geometry" />
        </mxCell>
        <mxCell id="d_AbX2u6F2E5icHir9cb-54" value="" style="edgeStyle=orthogonalEdgeStyle;rounded=0;orthogonalLoop=1;jettySize=auto;html=1;" edge="1" parent="1" source="d_AbX2u6F2E5icHir9cb-46" target="d_AbX2u6F2E5icHir9cb-53">
          <mxGeometry relative="1" as="geometry" />
        </mxCell>
        <mxCell id="d_AbX2u6F2E5icHir9cb-46" value="카메라 2" style="rounded=0;whiteSpace=wrap;html=1;" vertex="1" parent="1">
          <mxGeometry x="780" y="250" width="120" height="60" as="geometry" />
        </mxCell>
        <mxCell id="d_AbX2u6F2E5icHir9cb-63" value="" style="edgeStyle=orthogonalEdgeStyle;rounded=0;orthogonalLoop=1;jettySize=auto;html=1;" edge="1" parent="1" source="d_AbX2u6F2E5icHir9cb-49" target="d_AbX2u6F2E5icHir9cb-61">
          <mxGeometry relative="1" as="geometry" />
        </mxCell>
        <mxCell id="d_AbX2u6F2E5icHir9cb-109" style="edgeStyle=orthogonalEdgeStyle;rounded=0;orthogonalLoop=1;jettySize=auto;html=1;exitX=0;exitY=0.5;exitDx=0;exitDy=0;entryX=0.25;entryY=0;entryDx=0;entryDy=0;" edge="1" parent="1" source="d_AbX2u6F2E5icHir9cb-49" target="d_AbX2u6F2E5icHir9cb-94">
          <mxGeometry relative="1" as="geometry">
            <mxPoint x="480" y="600" as="targetPoint" />
            <Array as="points">
              <mxPoint x="480" y="390" />
            </Array>
          </mxGeometry>
        </mxCell>
        <mxCell id="d_AbX2u6F2E5icHir9cb-49" value="openCV" style="shape=parallelogram;perimeter=parallelogramPerimeter;whiteSpace=wrap;html=1;fixedSize=1;" vertex="1" parent="1">
          <mxGeometry x="540" y="360" width="120" height="60" as="geometry" />
        </mxCell>
        <mxCell id="d_AbX2u6F2E5icHir9cb-64" style="edgeStyle=orthogonalEdgeStyle;rounded=0;orthogonalLoop=1;jettySize=auto;html=1;exitX=0.5;exitY=1;exitDx=0;exitDy=0;entryX=0.5;entryY=0;entryDx=0;entryDy=0;" edge="1" parent="1" source="d_AbX2u6F2E5icHir9cb-53" target="d_AbX2u6F2E5icHir9cb-59">
          <mxGeometry relative="1" as="geometry" />
        </mxCell>
        <mxCell id="d_AbX2u6F2E5icHir9cb-53" value="openCV" style="shape=parallelogram;perimeter=parallelogramPerimeter;whiteSpace=wrap;html=1;fixedSize=1;" vertex="1" parent="1">
          <mxGeometry x="780" y="360" width="120" height="60" as="geometry" />
        </mxCell>
        <mxCell id="d_AbX2u6F2E5icHir9cb-106" style="edgeStyle=orthogonalEdgeStyle;rounded=0;orthogonalLoop=1;jettySize=auto;html=1;exitX=0.5;exitY=1;exitDx=0;exitDy=0;entryX=1;entryY=0.25;entryDx=0;entryDy=0;" edge="1" parent="1" source="d_AbX2u6F2E5icHir9cb-56" target="d_AbX2u6F2E5icHir9cb-94">
          <mxGeometry relative="1" as="geometry" />
        </mxCell>
        <mxCell id="d_AbX2u6F2E5icHir9cb-56" value="distance" style="rounded=0;whiteSpace=wrap;html=1;" vertex="1" parent="1">
          <mxGeometry x="660" y="580" width="120" height="60" as="geometry" />
        </mxCell>
        <mxCell id="d_AbX2u6F2E5icHir9cb-66" style="edgeStyle=orthogonalEdgeStyle;rounded=0;orthogonalLoop=1;jettySize=auto;html=1;exitX=0;exitY=0.5;exitDx=0;exitDy=0;entryX=0.75;entryY=0;entryDx=0;entryDy=0;" edge="1" parent="1" source="d_AbX2u6F2E5icHir9cb-59" target="d_AbX2u6F2E5icHir9cb-56">
          <mxGeometry relative="1" as="geometry" />
        </mxCell>
        <mxCell id="d_AbX2u6F2E5icHir9cb-59" value="center" style="rounded=0;whiteSpace=wrap;html=1;" vertex="1" parent="1">
          <mxGeometry x="780" y="470" width="120" height="60" as="geometry" />
        </mxCell>
        <mxCell id="d_AbX2u6F2E5icHir9cb-65" style="edgeStyle=orthogonalEdgeStyle;rounded=0;orthogonalLoop=1;jettySize=auto;html=1;exitX=1;exitY=0.5;exitDx=0;exitDy=0;entryX=0.25;entryY=0;entryDx=0;entryDy=0;" edge="1" parent="1" source="d_AbX2u6F2E5icHir9cb-61" target="d_AbX2u6F2E5icHir9cb-56">
          <mxGeometry relative="1" as="geometry" />
        </mxCell>
        <mxCell id="d_AbX2u6F2E5icHir9cb-116" style="edgeStyle=orthogonalEdgeStyle;rounded=0;orthogonalLoop=1;jettySize=auto;html=1;exitX=0.5;exitY=1;exitDx=0;exitDy=0;entryX=0.75;entryY=0;entryDx=0;entryDy=0;" edge="1" parent="1" source="d_AbX2u6F2E5icHir9cb-61" target="d_AbX2u6F2E5icHir9cb-94">
          <mxGeometry relative="1" as="geometry" />
        </mxCell>
        <mxCell id="d_AbX2u6F2E5icHir9cb-61" value="center" style="rounded=0;whiteSpace=wrap;html=1;" vertex="1" parent="1">
          <mxGeometry x="540" y="470" width="120" height="60" as="geometry" />
        </mxCell>
        <mxCell id="d_AbX2u6F2E5icHir9cb-70" style="edgeStyle=orthogonalEdgeStyle;rounded=0;orthogonalLoop=1;jettySize=auto;html=1;exitX=0.5;exitY=1;exitDx=0;exitDy=0;" edge="1" parent="1" source="d_AbX2u6F2E5icHir9cb-67" target="d_AbX2u6F2E5icHir9cb-69">
          <mxGeometry relative="1" as="geometry" />
        </mxCell>
        <mxCell id="d_AbX2u6F2E5icHir9cb-67" value="MPU6050" style="whiteSpace=wrap;html=1;" vertex="1" parent="1">
          <mxGeometry x="310" y="250" width="120" height="60" as="geometry" />
        </mxCell>
        <mxCell id="d_AbX2u6F2E5icHir9cb-79" value="" style="edgeStyle=orthogonalEdgeStyle;rounded=0;orthogonalLoop=1;jettySize=auto;html=1;" edge="1" parent="1" source="d_AbX2u6F2E5icHir9cb-69" target="d_AbX2u6F2E5icHir9cb-78">
          <mxGeometry relative="1" as="geometry" />
        </mxCell>
        <mxCell id="d_AbX2u6F2E5icHir9cb-69" value="Kalman Filter" style="shape=parallelogram;perimeter=parallelogramPerimeter;whiteSpace=wrap;html=1;fixedSize=1;" vertex="1" parent="1">
          <mxGeometry x="310" y="360" width="120" height="60" as="geometry" />
        </mxCell>
        <mxCell id="d_AbX2u6F2E5icHir9cb-108" style="edgeStyle=orthogonalEdgeStyle;rounded=0;orthogonalLoop=1;jettySize=auto;html=1;exitX=0.5;exitY=1;exitDx=0;exitDy=0;entryX=0;entryY=0.25;entryDx=0;entryDy=0;" edge="1" parent="1" source="d_AbX2u6F2E5icHir9cb-78" target="d_AbX2u6F2E5icHir9cb-94">
          <mxGeometry relative="1" as="geometry" />
        </mxCell>
        <mxCell id="d_AbX2u6F2E5icHir9cb-78" value="pose" style="rounded=0;whiteSpace=wrap;html=1;" vertex="1" parent="1">
          <mxGeometry x="310" y="470" width="120" height="60" as="geometry" />
        </mxCell>
        <mxCell id="d_AbX2u6F2E5icHir9cb-114" style="edgeStyle=orthogonalEdgeStyle;rounded=0;orthogonalLoop=1;jettySize=auto;html=1;exitX=0.5;exitY=1;exitDx=0;exitDy=0;entryX=0.25;entryY=0;entryDx=0;entryDy=0;" edge="1" parent="1" source="d_AbX2u6F2E5icHir9cb-94" target="d_AbX2u6F2E5icHir9cb-113">
          <mxGeometry relative="1" as="geometry" />
        </mxCell>
        <mxCell id="d_AbX2u6F2E5icHir9cb-94" value="&lt;p style=&quot;margin:0px;margin-top:4px;text-align:center;text-decoration:underline;&quot;&gt;&lt;b&gt;State&lt;/b&gt;&lt;/p&gt;&lt;hr&gt;&lt;p style=&quot;margin:0px;margin-left:8px;&quot;&gt;z&lt;/p&gt;&lt;p style=&quot;margin:0px;margin-left:8px;&quot;&gt;zd&lt;/p&gt;&lt;p style=&quot;margin:0px;margin-left:8px;&quot;&gt;psi&lt;/p&gt;&lt;p style=&quot;margin:0px;margin-left:8px;&quot;&gt;psid&lt;/p&gt;&lt;p style=&quot;margin:0px;margin-left:8px;&quot;&gt;x&lt;/p&gt;&lt;p style=&quot;margin:0px;margin-left:8px;&quot;&gt;xd&lt;/p&gt;&lt;p style=&quot;margin:0px;margin-left:8px;&quot;&gt;phi&lt;/p&gt;&lt;p style=&quot;margin:0px;margin-left:8px;&quot;&gt;phid&lt;/p&gt;&lt;p style=&quot;margin:0px;margin-left:8px;&quot;&gt;y&lt;/p&gt;&lt;p style=&quot;margin:0px;margin-left:8px;&quot;&gt;yd&lt;/p&gt;&lt;p style=&quot;margin:0px;margin-left:8px;&quot;&gt;theta&lt;/p&gt;&lt;p style=&quot;margin:0px;margin-left:8px;&quot;&gt;thetad&lt;/p&gt;" style="verticalAlign=top;align=left;overflow=fill;fontSize=12;fontFamily=Helvetica;html=1;whiteSpace=wrap;" vertex="1" parent="1">
          <mxGeometry x="440" y="690" width="160" height="210" as="geometry" />
        </mxCell>
        <mxCell id="d_AbX2u6F2E5icHir9cb-115" style="edgeStyle=orthogonalEdgeStyle;rounded=0;orthogonalLoop=1;jettySize=auto;html=1;exitX=0.5;exitY=1;exitDx=0;exitDy=0;entryX=0.75;entryY=0;entryDx=0;entryDy=0;" edge="1" parent="1" source="d_AbX2u6F2E5icHir9cb-110" target="d_AbX2u6F2E5icHir9cb-113">
          <mxGeometry relative="1" as="geometry" />
        </mxCell>
        <mxCell id="d_AbX2u6F2E5icHir9cb-110" value="&lt;p style=&quot;margin:0px;margin-top:4px;text-align:center;text-decoration:underline;&quot;&gt;&lt;b&gt;Desired State&lt;/b&gt;&lt;/p&gt;&lt;hr&gt;&lt;p style=&quot;margin:0px;margin-left:8px;&quot;&gt;z&lt;/p&gt;&lt;p style=&quot;margin:0px;margin-left:8px;&quot;&gt;zd&lt;/p&gt;&lt;p style=&quot;margin:0px;margin-left:8px;&quot;&gt;psi&lt;/p&gt;&lt;p style=&quot;margin:0px;margin-left:8px;&quot;&gt;psid&lt;/p&gt;&lt;p style=&quot;margin:0px;margin-left:8px;&quot;&gt;x&lt;/p&gt;&lt;p style=&quot;margin:0px;margin-left:8px;&quot;&gt;xd&lt;/p&gt;&lt;p style=&quot;margin:0px;margin-left:8px;&quot;&gt;phi&lt;/p&gt;&lt;p style=&quot;margin:0px;margin-left:8px;&quot;&gt;phid&lt;/p&gt;&lt;p style=&quot;margin:0px;margin-left:8px;&quot;&gt;y&lt;/p&gt;&lt;p style=&quot;margin:0px;margin-left:8px;&quot;&gt;yd&lt;/p&gt;&lt;p style=&quot;margin:0px;margin-left:8px;&quot;&gt;theta&lt;/p&gt;&lt;p style=&quot;margin:0px;margin-left:8px;&quot;&gt;thetad&lt;/p&gt;" style="verticalAlign=top;align=left;overflow=fill;fontSize=12;fontFamily=Helvetica;html=1;whiteSpace=wrap;" vertex="1" parent="1">
          <mxGeometry x="740" y="690" width="160" height="210" as="geometry" />
        </mxCell>
        <mxCell id="d_AbX2u6F2E5icHir9cb-117" style="edgeStyle=orthogonalEdgeStyle;rounded=0;orthogonalLoop=1;jettySize=auto;html=1;exitX=0.5;exitY=1;exitDx=0;exitDy=0;" edge="1" parent="1" source="d_AbX2u6F2E5icHir9cb-113">
          <mxGeometry relative="1" as="geometry">
            <mxPoint x="645" y="1080" as="targetPoint" />
          </mxGeometry>
        </mxCell>
        <mxCell id="d_AbX2u6F2E5icHir9cb-113" value="u=K(desired state-state)" style="rounded=0;whiteSpace=wrap;html=1;" vertex="1" parent="1">
          <mxGeometry x="560" y="960" width="170" height="60" as="geometry" />
        </mxCell>
        <mxCell id="d_AbX2u6F2E5icHir9cb-118" value="transmit" style="rounded=0;whiteSpace=wrap;html=1;" vertex="1" parent="1">
          <mxGeometry x="585" y="1080" width="120" height="60" as="geometry" />
        </mxCell>
      </root>
    </mxGraphModel>
  </diagram>
</mxfile>
